Coordinates
version=1
nRows=11
nColumns=40
inDegrees=yes

Units are S.I. units (second, meters, Newtons, ...)
If the header above contains a line with 'inDegrees', this indicates whether rotational values are in degrees (yes) or radians (no).

endheader
time	pelvis_tilt	pelvis_list	pelvis_rotation	pelvis_tx	pelvis_ty	pelvis_tz	hip_flexion_r	hip_adduction_r	hip_rotation_r	knee_angle_r	knee_angle_r_beta	ankle_angle_r	subtalar_angle_r	mtp_angle_r	hip_flexion_l	hip_adduction_l	hip_rotation_l	knee_angle_l	knee_angle_l_beta	ankle_angle_l	subtalar_angle_l	mtp_angle_l	lumbar_extension	lumbar_bending	lumbar_rotation	arm_flex_r	arm_add_r	arm_rot_r	elbow_flex_r	pro_sup_r	wrist_flex_r	wrist_dev_r	arm_flex_l	arm_add_l	arm_rot_l	elbow_flex_l	pro_sup_l	wrist_flex_l	wrist_dev_l
1749651033.78399992	     -0.82731732	     10.09353396	    -79.57974178	      0.15770212	     -0.38913694	      0.87085757	     80.00000000	     -7.00000000	      0.00000000	     80.00000000	      1.39626340	      0.00000000	      0.00000000	      0.00000000	     80.00000000	     -7.00000000	      0.00000000	     80.00000000	      1.39626340	      0.00000000	      0.00000000	      0.00000000	    -12.25575357	     -1.96378730	     12.31791424	     22.82483832	    -13.40561886	    -87.06062114	      0.23085468	      2.79577733	      0.00000000	      5.18405998	     14.48571993	     -3.37727248	      0.03941555	     69.01616424	     47.51547065	      0.00000000	      5.18405998
1749651034.05100012	     -0.52645529	     10.58019077	    -79.42659798	      0.15964488	     -0.38775657	      0.87021008	     80.00000000	     -7.00000000	      0.00000000	     80.00000000	      1.39626340	      0.00000000	      0.00000000	      0.00000000	     80.00000000	     -7.00000000	      0.00000000	     80.00000000	      1.39626340	      0.00000000	      0.00000000	      0.00000000	    -12.52028112	     -1.97704822	     12.76235657	     22.21966545	    -14.17806045	    -84.50784801	      0.34893057	      4.96972305	      0.00000000	      5.17075484	     14.66746787	     -3.07816164	      0.04253196	     69.08765983	     47.43300107	      0.00000000	      5.17075484
1749651034.08400011	     -1.11801222	     10.53902078	    -79.63383484	      0.15656646	     -0.38739582	      0.87095052	     80.00000000	     -7.00000000	      0.00000000	     80.00000000	      1.39626340	      0.00000000	      0.00000000	      0.00000000	     80.00000000	     -7.00000000	      0.00000000	     80.00000000	      1.39626340	      0.00000000	      0.00000000	      0.00000000	    -12.42731997	     -1.87483234	     13.56411952	     21.78185099	    -13.92942071	    -85.09172246	      0.31865931	      4.53644841	      0.00000000	      5.10570767	     15.21081940	     -3.33133454	      0.04186822	     69.63068266	     46.89727761	      0.00000000	      5.10570767
1749651034.11800003	     -0.31255438	     11.63557845	    -77.62979770	      0.16201328	     -0.38902048	      0.86789188	     80.00000000	     -7.00000000	      0.00000000	     80.00000000	      1.39626340	      0.00000000	      0.00000000	      0.00000000	     80.00000000	     -7.00000000	      0.00000000	     80.00000000	      1.39626340	      0.00000000	      0.00000000	      0.00000000	    -11.45549798	     -2.07073998	      9.68481966	     23.15287527	    -13.63020430	    -85.18260977	      0.30284996	      4.40557533	      0.00000000	      5.08849799	     14.07444024	     -3.61551653	      0.04222459	     69.97032660	     46.70122474	      0.00000000	      5.08849799
1749651034.15199995	     -0.32000213	     10.93197933	    -78.71561646	      0.16164256	     -0.38882534	      0.86931264	     80.00000000	     -7.00000000	      0.00000000	     80.00000000	      1.39626340	      0.00000000	      0.00000000	      0.00000000	     80.00000000	     -7.00000000	      0.00000000	     80.00000000	      1.39626340	      0.00000000	      0.00000000	      0.00000000	    -12.00025948	     -2.04340529	     11.37878166	     22.93785951	    -14.15400259	    -83.77228188	      0.37410274	      5.84683802	      0.00000000	      5.05266761	     14.50422187	     -3.23677077	      0.04915683	     70.85865792	     46.23369964	      0.00000000	      5.05266761
1749651034.18499994	     -0.52769858	     10.65502946	    -79.32370815	      0.16010832	     -0.38890037	      0.86980206	     80.00000000	     -7.00000000	      0.00000000	     80.00000000	      1.39626340	      0.00000000	      0.00000000	      0.00000000	     80.00000000	     -7.00000000	      0.00000000	     80.00000000	      1.39626340	      0.00000000	      0.00000000	      0.00000000	    -12.16486032	     -2.01135928	     11.78751256	     23.38104925	    -14.00389070	    -84.05493652	      0.37802195	      5.92074861	      0.00000000	      5.03436235	     14.44287700	     -3.42132923	      0.04967921	     71.18323812	     46.01999595	      0.00000000	      5.03436235
1749651034.21900010	     -0.50662861	     10.62467411	    -80.48088357	      0.15851260	     -0.38956831	      0.86949457	     80.00000000	     -7.00000000	      0.00000000	     80.00000000	      1.39626340	      0.00000000	      0.00000000	      0.00000000	     80.00000000	     -7.00000000	      0.00000000	     80.00000000	      1.39626340	      0.00000000	      0.00000000	      0.00000000	    -12.04791730	     -2.39757804	     12.71734847	     23.33928421	    -13.81698997	    -83.45182139	      0.46739682	      6.55289678	      0.00000000	      5.03348158	     14.49081486	     -3.32685747	      0.05065003	     71.19911466	     46.00828188	      0.00000000	      5.03348158
1749651034.25200009	     -0.53007257	     10.50609678	    -80.58986963	      0.15841972	     -0.38907492	      0.87012936	     80.00000000	     -7.00000000	      0.00000000	     80.00000000	      1.39626340	      0.00000000	      0.00000000	      0.00000000	     80.00000000	     -7.00000000	      0.00000000	     80.00000000	      1.39626340	      0.00000000	      0.00000000	      0.00000000	    -12.05104914	     -2.42042132	     12.58599020	     23.31677278	    -13.43341527	    -84.00710628	      0.34521000	      6.32323090	      0.00000000	      5.02715306	     14.29229917	     -3.30247128	      0.05265350	     71.42420019	     45.89773914	      0.00000000	      5.02715306
1749651034.28600001	     -0.82057451	     10.47256639	    -80.18002379	      0.15709316	     -0.38859173	      0.87068687	     80.00000000	     -7.00000000	      0.00000000	     80.00000000	      1.39626340	      0.00000000	      0.00000000	      0.00000000	     80.00000000	     -7.00000000	      0.00000000	     80.00000000	      1.39626340	      0.00000000	      0.00000000	      0.00000000	    -12.12785927	     -2.34794161	     12.98116956	     22.80442897	    -13.57638384	    -85.52426157	      0.31241611	      4.90937726	      0.00000000	      5.02605908	     14.76753889	     -3.33856988	      0.05200626	     71.44488748	     45.88059645	      0.00000000	      5.02605908
1749651034.31900001	     -1.04045044	     10.37369851	    -80.23183623	      0.15594708	     -0.38801545	      0.87133621	     80.00000000	     -7.00000000	      0.00000000	     80.00000000	      1.39626340	      0.00000000	      0.00000000	      0.00000000	     80.00000000	     -7.00000000	      0.00000000	     80.00000000	      1.39626340	      0.00000000	      0.00000000	      0.00000000	    -12.17817624	     -2.24865057	     13.19605195	     22.42228342	    -13.19051502	    -85.90678034	      0.27156416	      4.16133876	      0.00000000	      5.02179932	     14.86805243	     -3.34663119	      0.05400846	     71.68600031	     45.78677238	      0.00000000	      5.02179932
1749651034.35200000	     -1.16654321	     10.42992304	    -80.28205497	      0.15527732	     -0.38802123	      0.87102082	     80.00000000	     -7.00000000	      0.00000000	     80.00000000	      1.39626340	      0.00000000	      0.00000000	      0.00000000	     80.00000000	     -7.00000000	      0.00000000	     80.00000000	      1.39626340	      0.00000000	      0.00000000	      0.00000000	    -12.12545793	     -2.16012689	     12.90521097	     22.76317133	    -12.89308259	    -85.90446151	      0.28441637	      4.17243264	      0.00000000	      5.01462489	     14.70307965	     -3.56344291	      0.05438842	     71.97571152	     45.65506284	      0.00000000	      5.01462489
